# xmcd
#
# Track frame offsets:
#	183
#	14120
#	40763
#	61213
#	84958
#
# Disc length: 1420 seconds
#
# Revision: 0
# Processed by: cddbd v1.5.2PL0 Copyright (c) Steve Scherf et al.
# Submitted via: EasyCDDAExtractor 8.1.4.1
#
DISCID=35058a05
DTITLE=2 COW BOYS - Everybody Gonfi Gon
DYEAR=1994
DGENRE=Country
TTITLE0=Everybody Gonfi Gon (New New Atlantic Edit)
TTITLE1=Everybody Gonfi Gon (New Atlantic Mix)
TTITLE2=Everybody Gonfi Gon (Costa Del Sol Mix)
TTITLE3=Everybody Gonfi Gon (Valencia Mix)
TTITLE4=Everybody Gonfi Gon (Bailamos Mix)
EXTD=
EXTT0=
EXTT1=
EXTT2=
EXTT3=
EXTT4=
PLAYORDER=
